<svg width="400" height="90" xmlns="http://www.w3.org/2000/svg" role="img" aria-label="rust-axum-rest-api">
  <defs>
    <clipPath id="c">
      <rect width="400" height="90" rx="10"/>
    </clipPath>
  </defs>

  <!-- Background + left accent bar -->
  <g clip-path="url(#c)">
    <rect width="400" height="90" fill="#1A1B2E"/>
    <rect width="4" height="90" fill="#7AA2F7"/>
  </g>

  <!-- Border -->
  <rect x="0.5" y="0.5" width="399" height="89" rx="9.5" fill="none" stroke="#414868"/>

  <!-- Repo icon (GitHub octicon-repo) -->
  <g transform="translate(16, 16) scale(1.2)" fill="#BB9AF7">
    <path d="M2 2.5A2.5 2.5 0 0 1 4.5 0h8.75a.75.75 0 0 1 .75.75v12.5a.75.75 0 0 1-.75.75h-2.5a.75.75 0 0 1 0-1.5h1.75v-2h-8a1 1 0 0 0-.714 1.7.75.75 0 1 1-1.072 1.05A2.495 2.495 0 0 1 2 11.5Zm10.5-1h-8a1 1 0 0 0-1 1v6.708A2.486 2.486 0 0 1 4.5 9h8Z"/>
  </g>

  <!-- Repo name -->
  <text x="40" y="31" fill="#7AA2F7" font-family="ui-monospace,'Cascadia Code',Menlo,Consolas,monospace" font-size="14" font-weight="600">rust-axum-rest-api</text>

  <!-- Description -->
  <text x="40" y="50" fill="#565F89" font-family="-apple-system,BlinkMacSystemFont,'Segoe UI',Helvetica,Arial,sans-serif" font-size="11.5">Sample project of an API built with Rust</text>

  <!-- Divider -->
  <line x1="16" y1="62" x2="384" y2="62" stroke="#2A2B3D" stroke-width="1"/>

  <!-- Rust language dot + label -->
  <circle cx="16" cy="77" r="5" fill="#DEA584"/>
  <text x="28" y="82" fill="#9AA5CE" font-family="-apple-system,BlinkMacSystemFont,'Segoe UI',Helvetica,Arial,sans-serif" font-size="12">Rust</text>
</svg>
